<?xml version="1.0" encoding="UTF-8" standalone="no"?>
<!DOCTYPE svg PUBLIC "-//W3C//DTD SVG 1.1//EN"
 "http://www.w3.org/Graphics/SVG/1.1/DTD/svg11.dtd">
<!-- Generated by graphviz version 2.30.1 (20180420.1509)
 -->
<!-- Title: snakemake_dag Pages: 1 -->
<svg width="390pt" height="476pt"
 viewBox="0.00 0.00 390.00 476.00" xmlns="http://www.w3.org/2000/svg" xmlns:xlink="http://www.w3.org/1999/xlink">
<g id="graph0" class="graph" transform="scale(1 1) rotate(0) translate(4 472)">
<title>snakemake_dag</title>
<polygon fill="white" stroke="white" points="-4,5 -4,-472 387,-472 387,5 -4,5"/>
<!-- 0 -->
<g id="node1" class="node"><title>0</title>
<path fill="none" stroke="#afd856" stroke-width="2" d="M257.25,-36C257.25,-36 224.75,-36 224.75,-36 218.75,-36 212.75,-30 212.75,-24 212.75,-24 212.75,-12 212.75,-12 212.75,-6 218.75,-0 224.75,-0 224.75,-0 257.25,-0 257.25,-0 263.25,-0 269.25,-6 269.25,-12 269.25,-12 269.25,-24 269.25,-24 269.25,-30 263.25,-36 257.25,-36"/>
<text text-anchor="middle" x="241" y="-15.5" font-family="sans" font-size="10.00">pvacseq</text>
</g>
<!-- 1 -->
<g id="node2" class="node"><title>1</title>
<path fill="none" stroke="#d8ac56" stroke-width="2" d="M247.25,-108C247.25,-108 104.75,-108 104.75,-108 98.75,-108 92.75,-102 92.75,-96 92.75,-96 92.75,-84 92.75,-84 92.75,-78 98.75,-72 104.75,-72 104.75,-72 247.25,-72 247.25,-72 253.25,-72 259.25,-78 259.25,-84 259.25,-84 259.25,-96 259.25,-96 259.25,-102 253.25,-108 247.25,-108"/>
<text text-anchor="middle" x="176" y="-87.5" font-family="sans" font-size="10.00">vcf_readcount_annotator_indel</text>
</g>
<!-- 1&#45;&gt;0 -->
<g id="edge1" class="edge"><title>1&#45;&gt;0</title>
<path fill="none" stroke="grey" stroke-width="2" d="M192.067,-71.6966C199.939,-63.2198 209.555,-52.8636 218.173,-43.5826"/>
<polygon fill="grey" stroke="grey" points="220.878,-45.8139 225.117,-36.1043 215.748,-41.0507 220.878,-45.8139"/>
</g>
<!-- 2 -->
<g id="node3" class="node"><title>2</title>
<path fill="none" stroke="#5682d8" stroke-width="2" d="M148.25,-180C148.25,-180 11.75,-180 11.75,-180 5.75,-180 -0.25,-174 -0.25,-168 -0.25,-168 -0.25,-156 -0.25,-156 -0.25,-150 5.75,-144 11.75,-144 11.75,-144 148.25,-144 148.25,-144 154.25,-144 160.25,-150 160.25,-156 160.25,-156 160.25,-168 160.25,-168 160.25,-174 154.25,-180 148.25,-180"/>
<text text-anchor="middle" x="80" y="-159.5" font-family="sans" font-size="10.00">vcf_readcount_annotator_snv</text>
</g>
<!-- 2&#45;&gt;1 -->
<g id="edge3" class="edge"><title>2&#45;&gt;1</title>
<path fill="none" stroke="grey" stroke-width="2" d="M103.73,-143.697C115.937,-134.796 130.985,-123.823 144.184,-114.199"/>
<polygon fill="grey" stroke="grey" points="146.525,-116.824 152.543,-108.104 142.4,-111.168 146.525,-116.824"/>
</g>
<!-- 3 -->
<g id="node4" class="node"><title>3</title>
<path fill="none" stroke="#d88556" stroke-width="2" d="M149,-324C149,-324 85,-324 85,-324 79,-324 73,-318 73,-312 73,-312 73,-300 73,-300 73,-294 79,-288 85,-288 85,-288 149,-288 149,-288 155,-288 161,-294 161,-300 161,-300 161,-312 161,-312 161,-318 155,-324 149,-324"/>
<text text-anchor="middle" x="117" y="-303.5" font-family="sans" font-size="10.00">vt_decompose</text>
</g>
<!-- 3&#45;&gt;2 -->
<g id="edge5" class="edge"><title>3&#45;&gt;2</title>
<path fill="none" stroke="grey" stroke-width="2" d="M110.65,-287.972C106.945,-277.656 102.356,-264.179 99,-252 93.3696,-231.565 88.4225,-208.106 84.9888,-190.405"/>
<polygon fill="grey" stroke="grey" points="88.3565,-189.378 83.0538,-180.206 81.4791,-190.683 88.3565,-189.378"/>
</g>
<!-- 6 -->
<g id="node7" class="node"><title>6</title>
<path fill="none" stroke="#56d8d8" stroke-width="2" d="M188,-252C188,-252 120,-252 120,-252 114,-252 108,-246 108,-240 108,-240 108,-228 108,-228 108,-222 114,-216 120,-216 120,-216 188,-216 188,-216 194,-216 200,-222 200,-228 200,-228 200,-240 200,-240 200,-246 194,-252 188,-252"/>
<text text-anchor="middle" x="154" y="-231.5" font-family="sans" font-size="10.00">bam_readcount</text>
</g>
<!-- 3&#45;&gt;6 -->
<g id="edge9" class="edge"><title>3&#45;&gt;6</title>
<path fill="none" stroke="grey" stroke-width="2" d="M126.146,-287.697C130.403,-279.644 135.556,-269.894 140.266,-260.982"/>
<polygon fill="grey" stroke="grey" points="143.38,-262.581 144.959,-252.104 137.192,-259.31 143.38,-262.581"/>
</g>
<!-- 4 -->
<g id="node5" class="node"><title>4</title>
<path fill="none" stroke="#80d856" stroke-width="2" d="M132,-396C132,-396 102,-396 102,-396 96,-396 90,-390 90,-384 90,-384 90,-372 90,-372 90,-366 96,-360 102,-360 102,-360 132,-360 132,-360 138,-360 144,-366 144,-372 144,-372 144,-384 144,-384 144,-390 138,-396 132,-396"/>
<text text-anchor="middle" x="117" y="-375.5" font-family="sans" font-size="10.00">vep</text>
</g>
<!-- 4&#45;&gt;3 -->
<g id="edge7" class="edge"><title>4&#45;&gt;3</title>
<path fill="none" stroke="grey" stroke-width="2" d="M117,-359.697C117,-351.983 117,-342.712 117,-334.112"/>
<polygon fill="grey" stroke="grey" points="120.5,-334.104 117,-324.104 113.5,-334.104 120.5,-334.104"/>
</g>
<!-- 5 -->
<g id="node6" class="node"><title>5</title>
<path fill="none" stroke="#56d8a9" stroke-width="2" d="M140.25,-468C140.25,-468 93.75,-468 93.75,-468 87.75,-468 81.75,-462 81.75,-456 81.75,-456 81.75,-444 81.75,-444 81.75,-438 87.75,-432 93.75,-432 93.75,-432 140.25,-432 140.25,-432 146.25,-432 152.25,-438 152.25,-444 152.25,-444 152.25,-456 152.25,-456 152.25,-462 146.25,-468 140.25,-468"/>
<text text-anchor="middle" x="117" y="-447.5" font-family="sans" font-size="10.00">maf_to_vcf</text>
</g>
<!-- 5&#45;&gt;4 -->
<g id="edge8" class="edge"><title>5&#45;&gt;4</title>
<path fill="none" stroke="grey" stroke-width="2" d="M117,-431.697C117,-423.983 117,-414.712 117,-406.112"/>
<polygon fill="grey" stroke="grey" points="120.5,-406.104 117,-396.104 113.5,-406.104 120.5,-406.104"/>
</g>
<!-- 6&#45;&gt;1 -->
<g id="edge4" class="edge"><title>6&#45;&gt;1</title>
<path fill="none" stroke="grey" stroke-width="2" d="M159.882,-215.537C163.093,-205.299 166.843,-192.049 169,-180 172.664,-159.532 174.41,-136.075 175.242,-118.382"/>
<polygon fill="grey" stroke="grey" points="178.748,-118.322 175.651,-108.19 171.753,-118.041 178.748,-118.322"/>
</g>
<!-- 6&#45;&gt;2 -->
<g id="edge6" class="edge"><title>6&#45;&gt;2</title>
<path fill="none" stroke="grey" stroke-width="2" d="M135.708,-215.697C126.567,-207.05 115.36,-196.449 105.4,-187.027"/>
<polygon fill="grey" stroke="grey" points="107.752,-184.434 98.0817,-180.104 102.941,-189.519 107.752,-184.434"/>
</g>
<!-- 7 -->
<g id="node8" class="node"><title>7</title>
<path fill="none" stroke="#56d882" stroke-width="2" d="M322.25,-108C322.25,-108 289.75,-108 289.75,-108 283.75,-108 277.75,-102 277.75,-96 277.75,-96 277.75,-84 277.75,-84 277.75,-78 283.75,-72 289.75,-72 289.75,-72 322.25,-72 322.25,-72 328.25,-72 334.25,-78 334.25,-84 334.25,-84 334.25,-96 334.25,-96 334.25,-102 328.25,-108 322.25,-108"/>
<text text-anchor="middle" x="306" y="-87.5" font-family="sans" font-size="10.00">optitype</text>
</g>
<!-- 7&#45;&gt;0 -->
<g id="edge2" class="edge"><title>7&#45;&gt;0</title>
<path fill="none" stroke="grey" stroke-width="2" d="M289.933,-71.6966C282.061,-63.2198 272.445,-52.8636 263.827,-43.5826"/>
<polygon fill="grey" stroke="grey" points="266.252,-41.0507 256.883,-36.1043 261.122,-45.8139 266.252,-41.0507"/>
</g>
<!-- 8 -->
<g id="node9" class="node"><title>8</title>
<path fill="none" stroke="#d85656" stroke-width="2" d="M369.25,-180C369.25,-180 242.75,-180 242.75,-180 236.75,-180 230.75,-174 230.75,-168 230.75,-168 230.75,-156 230.75,-156 230.75,-150 236.75,-144 242.75,-144 242.75,-144 369.25,-144 369.25,-144 375.25,-144 381.25,-150 381.25,-156 381.25,-156 381.25,-168 381.25,-168 381.25,-174 375.25,-180 369.25,-180"/>
<text text-anchor="middle" x="306" y="-159.5" font-family="sans" font-size="10.00">optitype_convert_extracted</text>
</g>
<!-- 8&#45;&gt;7 -->
<g id="edge10" class="edge"><title>8&#45;&gt;7</title>
<path fill="none" stroke="grey" stroke-width="2" d="M306,-143.697C306,-135.983 306,-126.712 306,-118.112"/>
<polygon fill="grey" stroke="grey" points="309.5,-118.104 306,-108.104 302.5,-118.104 309.5,-118.104"/>
</g>
<!-- 9 -->
<g id="node10" class="node"><title>9</title>
<path fill="none" stroke="#56a9d8" stroke-width="2" d="M342.25,-252C342.25,-252 269.75,-252 269.75,-252 263.75,-252 257.75,-246 257.75,-240 257.75,-240 257.75,-228 257.75,-228 257.75,-222 263.75,-216 269.75,-216 269.75,-216 342.25,-216 342.25,-216 348.25,-216 354.25,-222 354.25,-228 354.25,-228 354.25,-240 354.25,-240 354.25,-246 348.25,-252 342.25,-252"/>
<text text-anchor="middle" x="306" y="-231.5" font-family="sans" font-size="10.00">optitype_extract</text>
</g>
<!-- 9&#45;&gt;8 -->
<g id="edge11" class="edge"><title>9&#45;&gt;8</title>
<path fill="none" stroke="grey" stroke-width="2" d="M306,-215.697C306,-207.983 306,-198.712 306,-190.112"/>
<polygon fill="grey" stroke="grey" points="309.5,-190.104 306,-180.104 302.5,-190.104 309.5,-190.104"/>
</g>
<!-- 10 -->
<g id="node11" class="node"><title>10</title>
<path fill="none" stroke="#59d856" stroke-width="2" d="M343.25,-324C343.25,-324 268.75,-324 268.75,-324 262.75,-324 256.75,-318 256.75,-312 256.75,-312 256.75,-300 256.75,-300 256.75,-294 262.75,-288 268.75,-288 268.75,-288 343.25,-288 343.25,-288 349.25,-288 355.25,-294 355.25,-300 355.25,-300 355.25,-312 355.25,-312 355.25,-318 349.25,-324 343.25,-324"/>
<text text-anchor="middle" x="306" y="-303.5" font-family="sans" font-size="10.00">optitype_convert</text>
</g>
<!-- 10&#45;&gt;9 -->
<g id="edge12" class="edge"><title>10&#45;&gt;9</title>
<path fill="none" stroke="grey" stroke-width="2" d="M306,-287.697C306,-279.983 306,-270.712 306,-262.112"/>
<polygon fill="grey" stroke="grey" points="309.5,-262.104 306,-252.104 302.5,-262.104 309.5,-262.104"/>
</g>
<!-- 11 -->
<g id="node12" class="node"><title>11</title>
<path fill="none" stroke="#d6d856" stroke-width="2" d="M336.25,-396C336.25,-396 275.75,-396 275.75,-396 269.75,-396 263.75,-390 263.75,-384 263.75,-384 263.75,-372 263.75,-372 263.75,-366 269.75,-360 275.75,-360 275.75,-360 336.25,-360 336.25,-360 342.25,-360 348.25,-366 348.25,-372 348.25,-372 348.25,-384 348.25,-384 348.25,-390 342.25,-396 336.25,-396"/>
<text text-anchor="middle" x="306" y="-375.5" font-family="sans" font-size="10.00">get_hla_reads</text>
</g>
<!-- 11&#45;&gt;10 -->
<g id="edge13" class="edge"><title>11&#45;&gt;10</title>
<path fill="none" stroke="grey" stroke-width="2" d="M306,-359.697C306,-351.983 306,-342.712 306,-334.112"/>
<polygon fill="grey" stroke="grey" points="309.5,-334.104 306,-324.104 302.5,-334.104 309.5,-334.104"/>
</g>
</g>
</svg>
